<mxfile host="Electron" agent="Mozilla/5.0 (Windows NT 10.0; Win64; x64) AppleWebKit/537.36 (KHTML, like Gecko) draw.io/24.7.17 Chrome/128.0.6613.36 Electron/32.0.1 Safari/537.36" version="24.7.17">
  <diagram name="Page-1" id="rNZ7m0xOj77eA6-q9ir9">
    <mxGraphModel dx="1434" dy="836" grid="1" gridSize="1" guides="1" tooltips="1" connect="1" arrows="1" fold="1" page="1" pageScale="1" pageWidth="413" pageHeight="291" math="0" shadow="0">
      <root>
        <mxCell id="0" />
        <mxCell id="1" parent="0" />
        <mxCell id="4oWhNv5ZwG1E4qyTXh37-1" value="Customer" style="swimlane;whiteSpace=wrap;shadow=1;fillColor=#FFFFFF;" parent="1" vertex="1">
          <mxGeometry x="120" y="130" width="280" height="830" as="geometry" />
        </mxCell>
        <mxCell id="4oWhNv5ZwG1E4qyTXh37-3" value="System" style="swimlane;whiteSpace=wrap;fillColor=#FFFFFF;" parent="1" vertex="1">
          <mxGeometry x="400" y="130" width="300" height="830" as="geometry" />
        </mxCell>
        <mxCell id="4oWhNv5ZwG1E4qyTXh37-4" value="" style="edgeStyle=orthogonalEdgeStyle;rounded=0;orthogonalLoop=1;jettySize=auto;html=1;fillColor=#FFFFC0;" parent="4oWhNv5ZwG1E4qyTXh37-3" source="4oWhNv5ZwG1E4qyTXh37-5" target="4oWhNv5ZwG1E4qyTXh37-10" edge="1">
          <mxGeometry relative="1" as="geometry" />
        </mxCell>
        <mxCell id="4oWhNv5ZwG1E4qyTXh37-2" value="&lt;span style=&quot;text-wrap-mode: nowrap;&quot;&gt;Login&lt;/span&gt;" style="rounded=1;whiteSpace=wrap;html=1;fillColor=#91fd6f;" parent="4oWhNv5ZwG1E4qyTXh37-3" vertex="1">
          <mxGeometry x="-200" y="93" width="105.5" height="40" as="geometry" />
        </mxCell>
        <mxCell id="4oWhNv5ZwG1E4qyTXh37-5" value="Retrieve Cart Items" style="rounded=1;whiteSpace=wrap;html=1;fillColor=#FFFFC0;shadow=1;" parent="4oWhNv5ZwG1E4qyTXh37-3" vertex="1">
          <mxGeometry x="101.75" y="193" width="105.5" height="40" as="geometry" />
        </mxCell>
        <mxCell id="4oWhNv5ZwG1E4qyTXh37-31" value="" style="ellipse;shape=startState;fillColor=#000000;strokeColor=#ff0000;" parent="4oWhNv5ZwG1E4qyTXh37-3" vertex="1">
          <mxGeometry x="136.38" y="33" width="30" height="30" as="geometry" />
        </mxCell>
        <mxCell id="4oWhNv5ZwG1E4qyTXh37-32" value="Is login?" style="rhombus;fillColor=#FFFFC0;strokeColor=#ff0000;" parent="4oWhNv5ZwG1E4qyTXh37-3" vertex="1">
          <mxGeometry x="111.38" y="93" width="80" height="40" as="geometry" />
        </mxCell>
        <mxCell id="4oWhNv5ZwG1E4qyTXh37-33" value="" style="edgeStyle=orthogonalEdgeStyle;rounded=0;orthogonalLoop=1;jettySize=auto;html=1;fillColor=#FFFFC0;" parent="4oWhNv5ZwG1E4qyTXh37-3" source="4oWhNv5ZwG1E4qyTXh37-31" target="4oWhNv5ZwG1E4qyTXh37-32" edge="1">
          <mxGeometry relative="1" as="geometry" />
        </mxCell>
        <mxCell id="4oWhNv5ZwG1E4qyTXh37-34" style="edgeStyle=orthogonalEdgeStyle;rounded=0;orthogonalLoop=1;jettySize=auto;html=1;entryX=0.5;entryY=0;entryDx=0;entryDy=0;exitX=0.5;exitY=1;exitDx=0;exitDy=0;fillColor=#FFFFC0;" parent="4oWhNv5ZwG1E4qyTXh37-3" source="4oWhNv5ZwG1E4qyTXh37-32" target="4oWhNv5ZwG1E4qyTXh37-5" edge="1">
          <mxGeometry relative="1" as="geometry">
            <mxPoint x="40" y="273" as="targetPoint" />
            <mxPoint x="40" y="153" as="sourcePoint" />
          </mxGeometry>
        </mxCell>
        <mxCell id="4oWhNv5ZwG1E4qyTXh37-35" value="[Yes]" style="edgeLabel;html=1;align=center;verticalAlign=middle;resizable=0;points=[];fillColor=#FFFFC0;" parent="4oWhNv5ZwG1E4qyTXh37-34" vertex="1" connectable="0">
          <mxGeometry x="0.2437" y="2" relative="1" as="geometry">
            <mxPoint as="offset" />
          </mxGeometry>
        </mxCell>
        <mxCell id="4oWhNv5ZwG1E4qyTXh37-36" style="edgeStyle=orthogonalEdgeStyle;rounded=0;orthogonalLoop=1;jettySize=auto;html=1;entryX=1;entryY=0.5;entryDx=0;entryDy=0;exitX=0;exitY=0.5;exitDx=0;exitDy=0;fillColor=#FFFFC0;" parent="4oWhNv5ZwG1E4qyTXh37-3" source="4oWhNv5ZwG1E4qyTXh37-32" target="4oWhNv5ZwG1E4qyTXh37-2" edge="1">
          <mxGeometry relative="1" as="geometry">
            <mxPoint x="50" y="253" as="targetPoint" />
            <mxPoint x="50" y="133" as="sourcePoint" />
          </mxGeometry>
        </mxCell>
        <mxCell id="4oWhNv5ZwG1E4qyTXh37-37" value="[No]" style="edgeLabel;html=1;align=center;verticalAlign=middle;resizable=0;points=[];fillColor=#FFFFC0;" parent="4oWhNv5ZwG1E4qyTXh37-36" vertex="1" connectable="0">
          <mxGeometry x="0.2437" y="2" relative="1" as="geometry">
            <mxPoint as="offset" />
          </mxGeometry>
        </mxCell>
        <mxCell id="4oWhNv5ZwG1E4qyTXh37-38" style="edgeStyle=orthogonalEdgeStyle;rounded=0;orthogonalLoop=1;jettySize=auto;html=1;entryX=0;entryY=0.5;entryDx=0;entryDy=0;fillColor=#FFFFC0;" parent="4oWhNv5ZwG1E4qyTXh37-3" source="4oWhNv5ZwG1E4qyTXh37-2" target="4oWhNv5ZwG1E4qyTXh37-5" edge="1">
          <mxGeometry relative="1" as="geometry">
            <Array as="points">
              <mxPoint x="-140" y="213" />
            </Array>
          </mxGeometry>
        </mxCell>
        <mxCell id="Zlx1YnsdDdp5GL-kJlXy-2" value="Apply discount" style="rounded=1;whiteSpace=wrap;html=1;fillColor=#abfc77;shadow=1;" vertex="1" parent="4oWhNv5ZwG1E4qyTXh37-3">
          <mxGeometry x="-211" y="537" width="105.5" height="40" as="geometry" />
        </mxCell>
        <mxCell id="Zlx1YnsdDdp5GL-kJlXy-5" style="edgeStyle=orthogonalEdgeStyle;rounded=0;orthogonalLoop=1;jettySize=auto;html=1;exitX=0.5;exitY=1;exitDx=0;exitDy=0;" edge="1" parent="4oWhNv5ZwG1E4qyTXh37-3" source="Zlx1YnsdDdp5GL-kJlXy-2" target="Zlx1YnsdDdp5GL-kJlXy-3">
          <mxGeometry relative="1" as="geometry" />
        </mxCell>
        <mxCell id="Zlx1YnsdDdp5GL-kJlXy-3" value="Choose delivery type" style="rounded=1;whiteSpace=wrap;html=1;fillColor=#FFFFC0;shadow=1;" vertex="1" parent="4oWhNv5ZwG1E4qyTXh37-3">
          <mxGeometry x="-211" y="612" width="105.5" height="40" as="geometry" />
        </mxCell>
        <mxCell id="4oWhNv5ZwG1E4qyTXh37-16" value="Receive confirmation" style="rounded=1;whiteSpace=wrap;html=1;fillColor=#FFFFC0;shadow=1;" parent="4oWhNv5ZwG1E4qyTXh37-3" vertex="1">
          <mxGeometry x="-162" y="756" width="105.5" height="40" as="geometry" />
        </mxCell>
        <mxCell id="4oWhNv5ZwG1E4qyTXh37-8" style="edgeStyle=orthogonalEdgeStyle;rounded=0;orthogonalLoop=1;jettySize=auto;html=1;fillColor=#FFFFC0;" parent="4oWhNv5ZwG1E4qyTXh37-3" source="4oWhNv5ZwG1E4qyTXh37-10" target="4oWhNv5ZwG1E4qyTXh37-11" edge="1">
          <mxGeometry relative="1" as="geometry" />
        </mxCell>
        <mxCell id="4oWhNv5ZwG1E4qyTXh37-9" value="[Invalid]" style="edgeLabel;html=1;align=center;verticalAlign=middle;resizable=0;points=[];fillColor=#FFFFC0;" parent="4oWhNv5ZwG1E4qyTXh37-8" vertex="1" connectable="0">
          <mxGeometry x="-0.1908" relative="1" as="geometry">
            <mxPoint as="offset" />
          </mxGeometry>
        </mxCell>
        <mxCell id="4oWhNv5ZwG1E4qyTXh37-10" value="Check itemÂ &#xa;availability" style="rhombus;fillColor=#FFFFC0;strokeColor=#ff0000;" parent="4oWhNv5ZwG1E4qyTXh37-3" vertex="1">
          <mxGeometry x="94.5" y="266" width="120" height="80" as="geometry" />
        </mxCell>
        <mxCell id="4oWhNv5ZwG1E4qyTXh37-14" value="" style="ellipse;shape=endState;fillColor=#000000;strokeColor=#ff0000" parent="4oWhNv5ZwG1E4qyTXh37-3" vertex="1">
          <mxGeometry x="-241" y="761" width="30" height="30" as="geometry" />
        </mxCell>
        <mxCell id="4oWhNv5ZwG1E4qyTXh37-17" value="Send order&amp;nbsp;&lt;span style=&quot;line-height: 115%;&quot;&gt;&lt;font style=&quot;font-size: 12px;&quot;&gt;invoice&lt;/font&gt;&lt;/span&gt;" style="rounded=1;whiteSpace=wrap;html=1;fillColor=#FFFFC0;shadow=1;" parent="4oWhNv5ZwG1E4qyTXh37-3" vertex="1">
          <mxGeometry x="100" y="756" width="105.5" height="40" as="geometry" />
        </mxCell>
        <mxCell id="4oWhNv5ZwG1E4qyTXh37-18" value="" style="edgeStyle=orthogonalEdgeStyle;rounded=0;orthogonalLoop=1;jettySize=auto;html=1;fillColor=#FFFFC0;" parent="4oWhNv5ZwG1E4qyTXh37-3" source="4oWhNv5ZwG1E4qyTXh37-19" target="4oWhNv5ZwG1E4qyTXh37-17" edge="1">
          <mxGeometry relative="1" as="geometry" />
        </mxCell>
        <mxCell id="4oWhNv5ZwG1E4qyTXh37-19" value="Update Inventory" style="rounded=1;whiteSpace=wrap;html=1;fillColor=#FFFFC0;shadow=1;" parent="4oWhNv5ZwG1E4qyTXh37-3" vertex="1">
          <mxGeometry x="99" y="688" width="105.5" height="40" as="geometry" />
        </mxCell>
        <mxCell id="4oWhNv5ZwG1E4qyTXh37-21" style="edgeStyle=orthogonalEdgeStyle;rounded=0;orthogonalLoop=1;jettySize=auto;html=1;entryX=0;entryY=0.5;entryDx=0;entryDy=0;exitX=0;exitY=0.5;exitDx=0;exitDy=0;fillColor=#FFFFC0;" parent="4oWhNv5ZwG1E4qyTXh37-3" source="4oWhNv5ZwG1E4qyTXh37-11" target="4oWhNv5ZwG1E4qyTXh37-14" edge="1">
          <mxGeometry relative="1" as="geometry">
            <mxPoint x="-206" y="301" as="sourcePoint" />
            <mxPoint x="-246" y="1007" as="targetPoint" />
          </mxGeometry>
        </mxCell>
        <mxCell id="4oWhNv5ZwG1E4qyTXh37-24" value="Make payment" style="rounded=1;whiteSpace=wrap;html=1;fillColor=#91fd6f;shadow=1;strokeColor=#6c8ebf;" parent="4oWhNv5ZwG1E4qyTXh37-3" vertex="1">
          <mxGeometry x="-215" y="468" width="112.75" height="40" as="geometry" />
        </mxCell>
        <mxCell id="4oWhNv5ZwG1E4qyTXh37-11" value="Display Error Message" style="rounded=1;whiteSpace=wrap;html=1;fillColor=#FFFFC0;shadow=1;" parent="4oWhNv5ZwG1E4qyTXh37-3" vertex="1">
          <mxGeometry x="100.75" y="391" width="105.5" height="40" as="geometry" />
        </mxCell>
        <mxCell id="Zlx1YnsdDdp5GL-kJlXy-1" style="edgeStyle=orthogonalEdgeStyle;rounded=0;orthogonalLoop=1;jettySize=auto;html=1;entryX=0.5;entryY=0;entryDx=0;entryDy=0;" edge="1" parent="4oWhNv5ZwG1E4qyTXh37-3" source="4oWhNv5ZwG1E4qyTXh37-10" target="4oWhNv5ZwG1E4qyTXh37-24">
          <mxGeometry relative="1" as="geometry">
            <Array as="points">
              <mxPoint x="259" y="301" />
              <mxPoint x="259" y="446" />
              <mxPoint x="-159" y="446" />
            </Array>
          </mxGeometry>
        </mxCell>
        <mxCell id="Zlx1YnsdDdp5GL-kJlXy-4" style="edgeStyle=orthogonalEdgeStyle;rounded=0;orthogonalLoop=1;jettySize=auto;html=1;exitX=0.5;exitY=1;exitDx=0;exitDy=0;" edge="1" parent="4oWhNv5ZwG1E4qyTXh37-3" source="4oWhNv5ZwG1E4qyTXh37-24" target="Zlx1YnsdDdp5GL-kJlXy-2">
          <mxGeometry relative="1" as="geometry" />
        </mxCell>
        <mxCell id="4oWhNv5ZwG1E4qyTXh37-15" style="edgeStyle=orthogonalEdgeStyle;rounded=0;orthogonalLoop=1;jettySize=auto;html=1;entryX=1;entryY=0.5;entryDx=0;entryDy=0;fillColor=#FFFFC0;" parent="4oWhNv5ZwG1E4qyTXh37-3" source="4oWhNv5ZwG1E4qyTXh37-16" target="4oWhNv5ZwG1E4qyTXh37-14" edge="1">
          <mxGeometry relative="1" as="geometry" />
        </mxCell>
        <mxCell id="4oWhNv5ZwG1E4qyTXh37-20" style="edgeStyle=orthogonalEdgeStyle;rounded=0;orthogonalLoop=1;jettySize=auto;html=1;entryX=1;entryY=0.5;entryDx=0;entryDy=0;fillColor=#FFFFC0;" parent="4oWhNv5ZwG1E4qyTXh37-3" source="4oWhNv5ZwG1E4qyTXh37-17" target="4oWhNv5ZwG1E4qyTXh37-16" edge="1">
          <mxGeometry relative="1" as="geometry" />
        </mxCell>
        <mxCell id="Zlx1YnsdDdp5GL-kJlXy-7" style="edgeStyle=orthogonalEdgeStyle;rounded=0;orthogonalLoop=1;jettySize=auto;html=1;entryX=0.5;entryY=0;entryDx=0;entryDy=0;" edge="1" parent="4oWhNv5ZwG1E4qyTXh37-3" source="Zlx1YnsdDdp5GL-kJlXy-3" target="4oWhNv5ZwG1E4qyTXh37-19">
          <mxGeometry relative="1" as="geometry">
            <Array as="points">
              <mxPoint x="-158" y="671" />
              <mxPoint x="152" y="671" />
            </Array>
          </mxGeometry>
        </mxCell>
        <mxCell id="4oWhNv5ZwG1E4qyTXh37-39" value="&lt;span style=&quot;text-wrap: nowrap;&quot;&gt;&lt;font style=&quot;font-size: 24px;&quot;&gt;Place Order&lt;/font&gt;&lt;/span&gt;" style="rounded=0;whiteSpace=wrap;html=1;" parent="1" vertex="1">
          <mxGeometry x="120" y="100" width="580" height="30" as="geometry" />
        </mxCell>
      </root>
    </mxGraphModel>
  </diagram>
</mxfile>
